<?xml version="1.0" standalone="no"?><!DOCTYPE svg PUBLIC "-//W3C//DTD SVG 1.1//EN" "http://www.w3.org/Graphics/SVG/1.1/DTD/svg11.dtd"><svg t="1525395152964" class="icon" style="" viewBox="0 0 1024 1024" version="1.1" xmlns="http://www.w3.org/2000/svg" p-id="1033" xmlns:xlink="http://www.w3.org/1999/xlink" width="128" height="128"><defs><style type="text/css"></style></defs><path d="M518.4 48c-214.4 0-390.4 176-390.4 393.6 0 48 16 99.2 41.6 156.8 28.8 57.6 70.4 118.4 118.4 182.4 35.2 41.6 73.6 83.2 108.8 121.6 12.8 12.8 25.6 25.6 35.2 35.2 6.4 6.4 12.8 9.6 12.8 12.8l0 0c38.4 38.4 102.4 38.4 137.6 0 3.2-3.2 6.4-6.4 12.8-12.8 9.6-9.6 22.4-22.4 35.2-35.2 38.4-38.4 73.6-80 108.8-121.6 51.2-60.8 92.8-124.8 118.4-182.4 28.8-57.6 41.6-108.8 41.6-156.8C908.8 224 732.8 48 518.4 48zM822.4 576c-25.6 54.4-64 112-115.2 172.8-35.2 41.6-70.4 83.2-105.6 118.4-12.8 12.8-25.6 25.6-35.2 35.2-6.4 6.4-9.6 9.6-12.8 12.8-19.2 19.2-51.2 19.2-70.4 0l0 0c-3.2-3.2-6.4-6.4-12.8-12.8-9.6-9.6-22.4-22.4-35.2-35.2-35.2-38.4-73.6-76.8-105.6-118.4-48-60.8-86.4-118.4-115.2-172.8-25.6-51.2-38.4-96-38.4-134.4 0-192 153.6-345.6 342.4-345.6 188.8 0 342.4 153.6 342.4 345.6C860.8 480 848 524.8 822.4 576z" p-id="1034" fill="#1296db"></path><path d="M518.4 262.4c-96 0-169.6 76.8-169.6 172.8 0 96 76.8 172.8 169.6 172.8s169.6-76.8 169.6-172.8C688 339.2 614.4 262.4 518.4 262.4zM518.4 556.8c-67.2 0-121.6-54.4-121.6-124.8s54.4-124.8 121.6-124.8c67.2 0 121.6 54.4 121.6 124.8S585.6 556.8 518.4 556.8z" p-id="1035" fill="#1296db"></path></svg>