<?xml version="1.0" standalone="no"?><!DOCTYPE svg PUBLIC "-//W3C//DTD SVG 1.1//EN" "http://www.w3.org/Graphics/SVG/1.1/DTD/svg11.dtd"><svg t="1541733251364" class="icon" style="" viewBox="0 0 1024 1024" version="1.1" xmlns="http://www.w3.org/2000/svg" p-id="3789" xmlns:xlink="http://www.w3.org/1999/xlink" width="128" height="128"><defs><style type="text/css"></style></defs><path d="M509.4656 225.2032c-84.4288 0-153.1136 68.6848-153.1136 153.1136 0 84.4544 68.6848 153.1648 153.1136 153.1648 84.4288 0 153.1136-68.7104 153.1136-153.1648C662.6048 293.888 593.92 225.2032 509.4656 225.2032zM509.4656 493.0816c-63.2576 0-114.7136-51.4816-114.7136-114.7648 0-63.2576 51.456-114.7136 114.7136-114.7136 63.2576 0 114.7136 51.456 114.7136 114.7136C624.2048 441.6 572.7488 493.0816 509.4656 493.0816z" fill="#bd3220" p-id="3790"></path><path d="M509.4656 55.4752c-190.0544 0-344.704 144.8192-344.704 322.8416 0 32.7936 5.2224 65.1264 15.5136 96.0768 0.1024 0.384 0.256 0.7424 0.4096 1.1008 7.7056 22.9376 18.2272 45.1072 31.5392 66.3552l280.5248 422.3744C496.3328 969.5744 502.3232 972.8 508.7488 972.8c0 0 0 0 0.0256 0 6.4 0 12.416-3.2 15.9744-8.5248L806.4 542.3616c13.3376-21.0432 24.0384-43.52 31.872-66.8672 0.1536-0.3584 0.2816-0.7168 0.4096-1.1008 10.2912-30.9504 15.5136-63.2832 15.5136-96.0768C854.1952 200.2944 699.5456 55.4752 509.4656 55.4752zM802.5856 461.2608c-0.1536 0.3584-0.2816 0.7168-0.4096 1.0752-6.8864 20.736-16.384 40.7552-27.9808 59.0848L508.8 918.9632 244.5056 521.0624c-11.6224-18.5856-20.9408-38.3488-27.7248-58.8032-9.0368-26.9824-13.5936-55.2192-13.5936-83.9424 0-156.8512 137.3952-284.4416 306.304-284.4416s306.304 127.5904 306.304 284.4416C815.7952 406.6304 811.3408 434.5088 802.5856 461.2608z" fill="#bd3220" p-id="3791"></path></svg>